<svg width="59" height="185" viewBox="0 0 59 185" fill="none" xmlns="http://www.w3.org/2000/svg">
<path d="M114 117.789C114 111.12 109.75 105.043 102.784 100.475C98.6323 97.7527 98.6323 92.0301 102.784 89.3079C109.75 84.7402 114 78.6663 114 71.9966C114 65.3269 109.75 59.2499 102.784 54.6822C98.6323 51.96 98.6323 46.2374 102.784 43.5151C109.75 38.9475 114 32.8705 114 26.2008C114 12.0059 94.7495 0.496581 71 0.49658C47.2506 0.496579 28 12.0059 28 26.2008C28 32.8705 32.2499 38.9475 39.2161 43.5151C43.3677 46.2374 43.3677 51.96 39.2161 54.6822C32.2499 59.2499 28 65.3269 28 71.9966C28 78.6663 32.2499 84.7433 39.2161 89.3109C43.3677 92.0332 43.3677 97.7558 39.2161 100.478C32.2499 105.046 28 111.123 28 117.792C28 131.99 47.2505 143.497 71 143.497C94.7494 143.497 114 131.987 114 117.789Z" fill="#2D2DBD"/>
<g style="mix-blend-mode:multiply">
<path d="M78.9889 103.091C75.441 96.9651 66.559 96.9651 63.0111 103.091L1.24611 209.734C-2.29774 215.853 2.13916 223.497 9.23498 223.497H132.765C139.861 223.497 144.298 215.853 140.754 209.734L78.9889 103.091Z" fill="#3838DD"/>
</g>
</svg>
