<svg width="70" height="107" viewBox="0 0 70 107" fill="none" xmlns="http://www.w3.org/2000/svg">
<g style="mix-blend-mode:multiply">
<path d="M-59.6737 73.1382C-64.6443 73.1382 -68.6737 77.1676 -68.6737 82.1382V136.78C-68.6737 141.75 -64.6443 145.78 -59.6737 145.78H61.0001C65.9707 145.78 70.0001 141.75 70.0001 136.78V82.1382C70.0001 77.1676 65.9707 73.1382 61.0001 73.1382H25.674C30.6445 73.1381 34.674 69.1087 34.674 64.1382V9.49658C34.6739 4.52605 30.6445 0.496629 25.674 0.496582H-94.9999C-99.9704 0.496582 -104 4.52602 -104 9.49658V64.1382C-104 69.1087 -99.9704 73.1382 -94.9999 73.1382H-59.6737Z" fill="#65AFC4"/>
</g>
</svg>
