<svg width="367" height="229" viewBox="0 0 367 229" fill="none" xmlns="http://www.w3.org/2000/svg">
<g style="mix-blend-mode:plus-darker">
<path d="M15.108 13.295C25.5044 -4.43164 51.4956 -4.43166 61.892 13.295L211.341 268.115C221.737 285.842 208.742 308 187.949 308H-110.949C-131.742 308 -144.737 285.842 -134.341 268.115L15.108 13.295Z" fill="#3676FF"/>
</g>
<g style="mix-blend-mode:multiply">
<path d="M214.286 64.3438C278.756 64.3438 331.019 99.5646 331.02 143.012C331.02 158.619 324.275 173.165 312.644 185.397C336.582 201.998 351.32 224.638 351.32 249.596C351.32 300.518 289.967 341.798 214.285 341.798C138.603 341.798 77.2503 300.518 77.25 249.596C77.25 224.639 91.9873 201.997 115.926 185.396C104.295 173.164 97.5527 158.618 97.5527 143.012C97.5531 99.5646 149.816 64.3438 214.286 64.3438Z" fill="#9EED52"/>
</g>
</svg>
